<svg width="373" height="58" viewBox="0 0 373 58" fill="none" xmlns="http://www.w3.org/2000/svg">
<path d="M15.7071 56.6129C15.3166 57.0034 14.6834 57.0034 14.2929 56.6129L7.92893 50.2489C7.53841 49.8584 7.53841 49.2253 7.92893 48.8347C8.31946 48.4442 8.95262 48.4442 9.34315 48.8347L15 54.4916L20.6569 48.8347C21.0474 48.4442 21.6805 48.4442 22.0711 48.8347C22.4616 49.2253 22.4616 49.8584 22.0711 50.2489L15.7071 56.6129ZM16 1V3.74529H14V1H16ZM16 9.23587L16 14.7264H14L14 9.23587H16ZM16 20.217L16 25.7076H14L14 20.217H16ZM16 31.1982V36.6888H14V31.1982H16ZM16 42.1793L16 47.6699H14L14 42.1793H16ZM16 53.1605V55.9058H14V53.1605H16ZM16.4142 57.32C15.6332 58.1011 14.3668 58.1011 13.5858 57.32L0.857864 44.5921C0.0768156 43.811 0.0768156 42.5447 0.857864 41.7637C1.63891 40.9826 2.90524 40.9826 3.68629 41.7637L15 53.0774L26.3137 41.7637C27.0948 40.9826 28.3611 40.9826 29.1421 41.7637C29.9232 42.5447 29.9232 43.811 29.1421 44.5921L16.4142 57.32ZM17 1V3.74529H13V1L17 1ZM17 9.23587V14.7264H13L13 9.23587H17ZM17 20.217V25.7076H13L13 20.217H17ZM17 31.1982V36.6888H13V31.1982H17ZM17 42.1793V47.6699H13L13 42.1793H17ZM17 53.1605V55.9058H13V53.1605H17Z" fill="#E0301E"/>
<line y1="-1" x2="358" y2="-1" transform="matrix(1 0 0 -1 15 1)" stroke="#E0301E" stroke-width="2" stroke-dasharray="6 6"/>
</svg>
