<svg width="373" height="59" viewBox="0 0 373 59" fill="none" xmlns="http://www.w3.org/2000/svg">
<path d="M357.293 57.4044C357.683 57.7949 358.317 57.7949 358.707 57.4044L365.071 51.0404C365.462 50.6499 365.462 50.0168 365.071 49.6262C364.681 49.2357 364.047 49.2357 363.657 49.6262L358 55.2831L352.343 49.6262C351.953 49.2357 351.319 49.2357 350.929 49.6262C350.538 50.0168 350.538 50.6499 350.929 51.0404L357.293 57.4044ZM357 1.7915V4.53679H359V1.7915H357ZM357 10.0274V15.518H359V10.0274H357ZM357 21.0085V26.4991H359V21.0085H357ZM357 31.9897V37.4803H359V31.9897H357ZM357 42.9708V48.4614H359V42.9708H357ZM357 53.952V56.6973H359V53.952H357ZM356.586 58.1115C357.367 58.8926 358.633 58.8926 359.414 58.1115L372.142 45.3836C372.923 44.6025 372.923 43.3362 372.142 42.5552C371.361 41.7741 370.095 41.7741 369.314 42.5552L358 53.8689L346.686 42.5552C345.905 41.7741 344.639 41.7741 343.858 42.5552C343.077 43.3362 343.077 44.6025 343.858 45.3836L356.586 58.1115ZM356 1.7915V4.53679H360V1.7915L356 1.7915ZM356 10.0274V15.518H360V10.0274H356ZM356 21.0085V26.4991H360V21.0085H356ZM356 31.9897V37.4803H360V31.9897H356ZM356 42.9708V48.4614H360V42.9708H356ZM356 53.952V56.6973H360V53.952H356Z" fill="#E0301E"/>
<line x1="358" y1="2.7915" y2="2.7915" stroke="#E0301E" stroke-width="2" stroke-dasharray="6 6"/>
</svg>
