<svg width="30" height="57" viewBox="0 0 30 57" fill="none" xmlns="http://www.w3.org/2000/svg">
<path d="M14.2929 55.6129C14.6834 56.0034 15.3166 56.0034 15.7071 55.6129L22.0711 49.2489C22.4616 48.8584 22.4616 48.2253 22.0711 47.8347C21.6805 47.4442 21.0474 47.4442 20.6569 47.8347L15 53.4916L9.34315 47.8347C8.95262 47.4442 8.31946 47.4442 7.92893 47.8347C7.53841 48.2253 7.53841 48.8584 7.92893 49.2489L14.2929 55.6129ZM14 0V2.74529H16V0L14 0ZM14 8.23587V13.7264H16V8.23587H14ZM14 19.217V24.7076H16V19.217H14ZM14 30.1982V35.6888H16V30.1982H14ZM14 41.1793V46.6699H16V41.1793H14ZM14 52.1605V54.9058H16V52.1605H14ZM13.5858 56.32C14.3668 57.1011 15.6332 57.1011 16.4142 56.32L29.1421 43.5921C29.9232 42.811 29.9232 41.5447 29.1421 40.7637C28.3611 39.9826 27.0948 39.9826 26.3137 40.7637L15 52.0774L3.68629 40.7637C2.90524 39.9826 1.63891 39.9826 0.857864 40.7637C0.0768156 41.5447 0.0768156 42.811 0.857864 43.5921L13.5858 56.32ZM13 0V2.74529H17V0L13 0ZM13 8.23587V13.7264H17V8.23587H13ZM13 19.217V24.7076H17V19.217H13ZM13 30.1982V35.6888H17L17 30.1982H13ZM13 41.1793V46.6699H17V41.1793H13ZM13 52.1605V54.9058H17V52.1605H13Z" fill="#E0301E"/>
</svg>
