<svg width="120" height="112" viewBox="0 0 120 112" fill="none" xmlns="http://www.w3.org/2000/svg">
<path d="M87.0919 46.6473H73.1252C69.4002 46.6473 65.8752 43.1135 65.8752 39.3722V23.5467C65.8896 22.6303 65.7062 21.7205 65.3357 20.8701C64.9652 20.0197 64.415 19.2456 63.7172 18.593C63.0193 17.9404 62.1876 17.4221 61.2706 17.0684C60.3535 16.7147 59.3693 16.5326 58.3752 16.5327H53.0669C52.7 16.5055 52.331 16.5453 51.9809 16.65C51.6309 16.7547 51.3067 16.9222 51.0271 17.1428C50.7475 17.3635 50.518 17.6329 50.3518 17.9355C50.1856 18.2382 50.0859 18.5682 50.0585 18.9066V28.156C50.0609 32.7687 48.5472 37.2739 45.7169 41.0777C42.7835 44.9188 38.8752 47.0084 34.7169 47.0084H32.0752V87.471H35.0835C41.1919 87.6554 45.3502 88.9383 49.3752 90.1752C53.6669 91.4965 58.1085 92.864 64.8835 92.864C78.6919 92.864 94.5502 90.8896 94.5502 75.4406V53.2771C94.4894 51.494 93.6758 49.8031 92.2827 48.5648C90.8896 47.3264 89.0271 46.6384 87.0919 46.6473ZM73.1252 51.395H87.0919C87.6714 51.3874 88.2342 51.574 88.6756 51.9202C89.117 52.2664 89.4071 52.7486 89.4919 53.2771V75.3945C89.4919 79.9424 87.5585 83.1305 83.5835 85.1433C79.6085 87.156 73.5669 88.0779 64.8835 88.0779C58.9835 88.0779 55.3169 86.9717 51.0752 85.6887L50.1835 85.4198C45.9757 84.0107 41.5854 83.1171 37.1252 82.7618V51.2029C41.8835 50.6037 46.2919 48.0762 49.6252 44.0814C53.3007 39.4722 55.2277 33.8756 55.1085 28.156V21.242H58.3335C58.9966 21.242 59.6325 21.4848 60.1013 21.917C60.5701 22.3492 60.8335 22.9354 60.8335 23.5467V39.3722C60.8335 45.7792 66.5752 51.395 73.1252 51.395Z" fill="#E0301E"/>
<path d="M0 0.5V51.6333H20V87.3099C20.0122 87.6218 19.957 87.9328 19.8374 88.2248C19.7179 88.5168 19.5365 88.784 19.3038 89.0107C19.0711 89.2374 18.7917 89.4191 18.482 89.5452C18.1723 89.6713 17.8385 89.7393 17.5 89.7452H0V111.125H120V0.5H0ZM114.883 106.408H5.11667V94.2777H17.5C19.4775 94.2414 21.3594 93.4864 22.736 92.177C24.1126 90.8677 24.8724 89.1101 24.85 87.2868V47.0701H5.11667V5.21693H114.883V106.408Z" fill="#E0301E"/>
</svg>
