<svg width="120" height="112" viewBox="0 0 120 112" fill="none" xmlns="http://www.w3.org/2000/svg">
<path d="M0 0.5V111.125H120V0.5H0ZM114.883 106.408H5.11667V5.21693H114.883V106.408Z" fill="#E0301E"/>
<path d="M62.6839 29.8775C59.718 29.7888 56.9088 28.6289 54.8622 26.6481C52.8156 24.6673 51.6956 22.0243 51.7437 19.289C51.7918 16.5538 53.0042 13.9457 55.1194 12.0271C57.2346 10.1085 60.0831 9.0332 63.0505 9.0332C66.0179 9.0332 68.8664 10.1085 70.9816 12.0271C73.0968 13.9457 74.3093 16.5538 74.3574 19.289C74.4055 22.0243 73.2854 24.6673 71.2388 26.6481C69.1922 28.6289 66.383 29.7888 63.4172 29.8775C63.1755 29.8698 62.9255 29.8775 62.6839 29.8775ZM62.6839 13.8522H62.2922C60.7126 13.9993 59.2564 14.7054 58.2299 15.8219C57.2033 16.9384 56.6865 18.3784 56.7879 19.839C56.8894 21.2997 57.6012 22.6671 58.7739 23.6538C59.9465 24.6405 61.4885 25.1696 63.0755 25.1298C64.6784 25.0553 66.1856 24.4038 67.2728 23.3154C68.36 22.227 68.9404 20.7887 68.889 19.3099C68.8377 17.8311 68.1588 16.4299 66.9984 15.4079C65.8379 14.3858 64.2887 13.8244 62.6839 13.8445V13.8522Z" fill="#E0301E"/>
<path d="M52.7588 101.23H40.3671C39.2867 101.235 38.2335 100.918 37.3652 100.325C36.4969 99.7324 35.8602 98.8963 35.5505 97.942L31.4921 85.7042C26.7671 82.9078 22.7338 80.3265 20.1088 75.8324L15.4588 74.5264C14.4253 74.2395 13.5202 73.652 12.8788 72.8516C12.2374 72.0513 11.8942 71.0811 11.9005 70.0861V58.6625C11.896 57.6687 12.2401 56.7003 12.8813 55.9015C13.5225 55.1027 14.4266 54.5163 15.4588 54.2298L20.0838 52.9238C21.3181 50.7154 22.8558 48.6627 24.6588 46.8164L20.3588 41.216C19.9594 40.7026 19.6787 40.1189 19.5342 39.5013C19.3897 38.8836 19.3845 38.2452 19.5189 37.6256C19.6534 37.0061 19.9245 36.4186 20.3156 35.8997C20.7066 35.3808 21.2092 34.9415 21.7921 34.6092C24.7797 32.9806 28.1967 32.1432 31.6671 32.1893C36.1057 32.1543 40.4356 33.4543 44.0005 35.8922C49.9338 34.4402 58.9505 33.7795 64.0005 33.7795C82.7838 33.7795 99.5088 42.8677 104.684 55.8738L104.742 56.0275L105.984 59.9301C106.09 60.3555 106.135 60.7921 106.117 61.2284C106.266 62.2727 106.341 63.3248 106.342 64.3781C106.338 67.6246 105.639 70.8384 104.284 73.835L97.3671 97.7269C97.0861 98.7161 96.4563 99.5911 95.5768 100.214C94.6973 100.837 93.618 101.173 92.5088 101.169H80.4338C79.3106 101.172 78.2189 100.827 77.3345 100.189C76.4501 99.5503 75.8246 98.6561 75.5588 97.6501L74.1671 92.3493C69.8722 93.0891 65.496 93.347 61.1338 93.1176C60.7421 93.1176 59.9421 93.1867 59.1505 93.2712L57.6088 97.8806C57.3096 98.8514 56.6731 99.7048 55.797 100.31C54.9208 100.915 53.8535 101.238 52.7588 101.23ZM61.4338 87.9167H61.6671C66.6811 88.1719 71.7076 87.708 76.5671 86.5415L78.5005 85.6888L81.3338 96.1905H92.3755L99.3588 72.1526C100.856 68.9706 101.366 65.4684 100.834 62.035L100.742 61.4742L100.784 61.2975L100.684 60.898L99.7588 58.1555C95.4505 47.4463 80.5921 39.7179 64.4505 39.7179C59.0255 39.7179 48.9255 40.54 44.0838 42.0995L42.0005 42.7525L40.4171 41.385C38.5424 39.8581 36.2669 38.81 33.8167 38.3451C31.3665 37.8801 28.8269 38.0144 26.4505 38.7346L31.1838 44.8805L31.7671 47.2773L29.2671 49.3131C26.7282 51.4803 24.6829 54.0918 23.2505 56.9954L22.5921 58.3782L17.6671 60.1836V69.3101L24.1671 71.1769L24.8338 72.5521C26.8088 76.6621 30.5088 78.8439 35.6671 81.863L36.7838 82.516L37.3088 83.7682L41.4755 96.3288H51.2755L53.9838 87.5556L61.4338 87.9167Z" fill="#E0301E"/>
<path d="M37.7998 61.1514C40.5612 61.1514 42.7998 59.0877 42.7998 56.542C42.7998 53.9963 40.5612 51.9326 37.7998 51.9326C35.0384 51.9326 32.7998 53.9963 32.7998 56.542C32.7998 59.0877 35.0384 61.1514 37.7998 61.1514Z" fill="#E0301E"/>
<path d="M73.2831 51.2029C67.3073 49.0819 60.7294 48.8843 54.6165 50.6421L52.2998 45.2184C59.875 42.896 68.0918 43.0835 75.5331 45.7485L73.2831 51.2029Z" fill="#E0301E"/>
</svg>
