<svg width="120" height="112" viewBox="0 0 120 112" fill="none" xmlns="http://www.w3.org/2000/svg">
<path d="M0 0.5V111.125H120V0.5H0ZM114.883 106.377H5.11667V5.17852H114.883V106.377Z" fill="#E0301E"/>
<path d="M59.9997 92.4567C52.1278 92.4567 44.4329 90.3043 37.8883 86.2719C31.3437 82.2394 26.2435 76.508 23.233 69.8028C20.2225 63.0977 19.4369 55.72 20.9757 48.6032C22.5144 41.4863 26.3083 34.9501 31.8775 29.8214C37.4466 24.6928 44.5407 21.2021 52.2623 19.791C59.9838 18.3799 67.9859 19.1119 75.2562 21.8942C82.5264 24.6765 88.7381 29.3843 93.1055 35.4218C97.4728 41.4593 99.7996 48.5554 99.7913 55.8122C99.7693 65.5313 95.5686 74.846 88.1097 81.7149C80.6509 88.5838 70.5425 92.4466 59.9997 92.4567ZM59.9997 23.8154C53.145 23.8155 46.4442 25.6888 40.7442 29.1987C35.0442 32.7087 30.6009 37.6976 27.9759 43.535C25.3508 49.3724 24.6618 55.7962 25.9961 61.9944C27.3303 68.1927 30.6279 73.8872 35.4719 78.3582C40.316 82.8291 46.4891 85.8759 53.211 87.1133C59.933 88.3508 66.902 87.7234 73.2372 85.3104C79.5724 82.8975 84.9895 78.8073 88.8037 73.5568C92.6179 68.3063 94.6581 62.1313 94.6663 55.8122C94.6685 47.3322 91.0182 39.1983 84.5177 33.1984C78.0171 27.1985 69.1983 23.8236 59.9997 23.8154Z" fill="#E0301E"/>
<path d="M88.0586 58.1406H57.4336V29.9082H62.5669V53.416H88.0586V58.1406Z" fill="#E0301E"/>
</svg>
